<mxfile host="65bd71144e">
    <diagram id="IY07N28KJqreQ3GmtW-Q" name="Page-1">
        <mxGraphModel dx="820" dy="575" grid="1" gridSize="10" guides="1" tooltips="1" connect="1" arrows="1" fold="1" page="1" pageScale="1" pageWidth="850" pageHeight="1100" math="0" shadow="0">
            <root>
                <mxCell id="0"/>
                <mxCell id="1" parent="0"/>
                <mxCell id="2" value="" style="strokeWidth=1;shadow=0;dashed=0;align=center;html=1;shape=mxgraph.mockup.containers.browserWindow;rSize=0;strokeColor=#666666;strokeColor2=#008cff;strokeColor3=#c4c4c4;mainText=,;recursiveResize=0;" vertex="1" parent="1">
                    <mxGeometry x="10" y="15" width="830" height="1070" as="geometry"/>
                </mxCell>
                <mxCell id="3" value="Page" style="strokeWidth=1;shadow=0;dashed=0;align=center;html=1;shape=mxgraph.mockup.containers.anchor;fontSize=17;fontColor=#666666;align=left;" vertex="1" parent="2">
                    <mxGeometry x="60" y="12" width="110" height="26" as="geometry"/>
                </mxCell>
                <mxCell id="4" value="http://localhost:3000/staffs" style="strokeWidth=1;shadow=0;dashed=0;align=center;html=1;shape=mxgraph.mockup.containers.anchor;rSize=0;fontSize=17;fontColor=#666666;align=left;" vertex="1" parent="2">
                    <mxGeometry x="130" y="60" width="250" height="26" as="geometry"/>
                </mxCell>
                <mxCell id="5" value="&lt;b&gt;&lt;font style=&quot;font-size: 25px&quot;&gt;Nhân viên/Phòng ban&lt;/font&gt;&lt;/b&gt;" style="text;html=1;strokeColor=none;fillColor=none;align=left;verticalAlign=middle;whiteSpace=wrap;rounded=0;fontSize=20;" vertex="1" parent="2">
                    <mxGeometry x="50" y="240" width="310" height="50" as="geometry"/>
                </mxCell>
                <mxCell id="6" value="&lt;font style=&quot;font-size: 40px&quot;&gt;Footer&lt;/font&gt;" style="rounded=1;whiteSpace=wrap;html=1;" vertex="1" parent="2">
                    <mxGeometry x="25" y="845" width="780" height="170" as="geometry"/>
                </mxCell>
                <mxCell id="7" value="&lt;div style=&quot;text-align: left&quot;&gt;&lt;span style=&quot;font-size: 16px&quot;&gt;Tên nhân viên&lt;/span&gt;&lt;/div&gt;&lt;span style=&quot;font-size: 16px&quot;&gt;&lt;div style=&quot;text-align: left&quot;&gt;&lt;span&gt;Mã nhân viên:&lt;/span&gt;&lt;/div&gt;&lt;div style=&quot;text-align: left&quot;&gt;&lt;span&gt;Hệ số lương:&lt;/span&gt;&lt;/div&gt;&lt;div style=&quot;text-align: left&quot;&gt;&lt;span&gt;Số ngày làm thêm:&lt;/span&gt;&lt;/div&gt;&lt;div style=&quot;text-align: left&quot;&gt;&lt;span&gt;Lương:&amp;nbsp;&amp;nbsp;&lt;/span&gt;&lt;/div&gt;&lt;br&gt;&lt;br&gt;&lt;/span&gt;" style="rounded=1;whiteSpace=wrap;html=1;" vertex="1" parent="2">
                    <mxGeometry x="60" y="415" width="210" height="175" as="geometry"/>
                </mxCell>
                <mxCell id="32" value="" style="rounded=1;whiteSpace=wrap;html=1;fontSize=20;" vertex="1" parent="2">
                    <mxGeometry x="280" y="315" width="160" height="40" as="geometry"/>
                </mxCell>
                <mxCell id="34" value="&lt;div style=&quot;text-align: left&quot;&gt;&lt;span style=&quot;font-size: 16px&quot;&gt;Tên nhân viên&lt;/span&gt;&lt;/div&gt;&lt;span style=&quot;font-size: 16px&quot;&gt;&lt;div style=&quot;text-align: left&quot;&gt;&lt;span&gt;Mã nhân viên:&lt;/span&gt;&lt;/div&gt;&lt;div style=&quot;text-align: left&quot;&gt;&lt;span&gt;Hệ số lương:&lt;/span&gt;&lt;/div&gt;&lt;div style=&quot;text-align: left&quot;&gt;&lt;span&gt;Số ngày làm thêm:&lt;/span&gt;&lt;/div&gt;&lt;div style=&quot;text-align: left&quot;&gt;&lt;span&gt;Lương:&amp;nbsp;&amp;nbsp;&lt;/span&gt;&lt;/div&gt;&lt;br&gt;&lt;br&gt;&lt;/span&gt;" style="rounded=1;whiteSpace=wrap;html=1;" vertex="1" parent="2">
                    <mxGeometry x="530" y="415" width="210" height="175" as="geometry"/>
                </mxCell>
                <mxCell id="33" value="&lt;div style=&quot;text-align: left&quot;&gt;&lt;span style=&quot;font-size: 16px&quot;&gt;Tên nhân viên&lt;/span&gt;&lt;/div&gt;&lt;span style=&quot;font-size: 16px&quot;&gt;&lt;div style=&quot;text-align: left&quot;&gt;&lt;span&gt;Mã nhân viên:&lt;/span&gt;&lt;/div&gt;&lt;div style=&quot;text-align: left&quot;&gt;&lt;span&gt;Hệ số lương:&lt;/span&gt;&lt;/div&gt;&lt;div style=&quot;text-align: left&quot;&gt;&lt;span&gt;Số ngày làm thêm:&lt;/span&gt;&lt;/div&gt;&lt;div style=&quot;text-align: left&quot;&gt;&lt;span&gt;Lương:&amp;nbsp;&amp;nbsp;&lt;/span&gt;&lt;/div&gt;&lt;br&gt;&lt;br&gt;&lt;/span&gt;" style="rounded=1;whiteSpace=wrap;html=1;" vertex="1" parent="2">
                    <mxGeometry x="290" y="415" width="210" height="175" as="geometry"/>
                </mxCell>
                <mxCell id="36" value="&lt;div style=&quot;text-align: left&quot;&gt;&lt;span style=&quot;font-size: 16px&quot;&gt;Tên nhân viên&lt;/span&gt;&lt;/div&gt;&lt;span style=&quot;font-size: 16px&quot;&gt;&lt;div style=&quot;text-align: left&quot;&gt;&lt;span&gt;Mã nhân viên:&lt;/span&gt;&lt;/div&gt;&lt;div style=&quot;text-align: left&quot;&gt;&lt;span&gt;Hệ số lương:&lt;/span&gt;&lt;/div&gt;&lt;div style=&quot;text-align: left&quot;&gt;&lt;span&gt;Số ngày làm thêm:&lt;/span&gt;&lt;/div&gt;&lt;div style=&quot;text-align: left&quot;&gt;&lt;span&gt;Lương:&amp;nbsp;&amp;nbsp;&lt;/span&gt;&lt;/div&gt;&lt;br&gt;&lt;br&gt;&lt;/span&gt;" style="rounded=1;whiteSpace=wrap;html=1;" vertex="1" parent="2">
                    <mxGeometry x="60" y="645" width="210" height="175" as="geometry"/>
                </mxCell>
                <mxCell id="35" value="&lt;div style=&quot;text-align: left&quot;&gt;&lt;span style=&quot;font-size: 16px&quot;&gt;Tên nhân viên&lt;/span&gt;&lt;/div&gt;&lt;span style=&quot;font-size: 16px&quot;&gt;&lt;div style=&quot;text-align: left&quot;&gt;&lt;span&gt;Mã nhân viên:&lt;/span&gt;&lt;/div&gt;&lt;div style=&quot;text-align: left&quot;&gt;&lt;span&gt;Hệ số lương:&lt;/span&gt;&lt;/div&gt;&lt;div style=&quot;text-align: left&quot;&gt;&lt;span&gt;Số ngày làm thêm:&lt;/span&gt;&lt;/div&gt;&lt;div style=&quot;text-align: left&quot;&gt;&lt;span&gt;Lương:&amp;nbsp;&amp;nbsp;&lt;/span&gt;&lt;/div&gt;&lt;br&gt;&lt;br&gt;&lt;/span&gt;" style="rounded=1;whiteSpace=wrap;html=1;" vertex="1" parent="2">
                    <mxGeometry x="290" y="645" width="210" height="175" as="geometry"/>
                </mxCell>
                <mxCell id="37" value="&lt;div style=&quot;text-align: left&quot;&gt;&lt;span style=&quot;font-size: 16px&quot;&gt;Tên nhân viên&lt;/span&gt;&lt;/div&gt;&lt;span style=&quot;font-size: 16px&quot;&gt;&lt;div style=&quot;text-align: left&quot;&gt;&lt;span&gt;Mã nhân viên:&lt;/span&gt;&lt;/div&gt;&lt;div style=&quot;text-align: left&quot;&gt;&lt;span&gt;Hệ số lương:&lt;/span&gt;&lt;/div&gt;&lt;div style=&quot;text-align: left&quot;&gt;&lt;span&gt;Số ngày làm thêm:&lt;/span&gt;&lt;/div&gt;&lt;div style=&quot;text-align: left&quot;&gt;&lt;span&gt;Lương:&amp;nbsp;&amp;nbsp;&lt;/span&gt;&lt;/div&gt;&lt;br&gt;&lt;br&gt;&lt;/span&gt;" style="rounded=1;whiteSpace=wrap;html=1;" vertex="1" parent="2">
                    <mxGeometry x="530" y="645" width="210" height="175" as="geometry"/>
                </mxCell>
                <mxCell id="24" value="" style="rounded=1;whiteSpace=wrap;html=1;" vertex="1" parent="1">
                    <mxGeometry x="25" y="150" width="820" height="80" as="geometry"/>
                </mxCell>
                <mxCell id="25" value="&lt;font style=&quot;font-size: 20px&quot;&gt;Logo&lt;/font&gt;" style="ellipse;whiteSpace=wrap;html=1;" vertex="1" parent="1">
                    <mxGeometry x="40" y="160" width="60" height="60" as="geometry"/>
                </mxCell>
                <mxCell id="26" value="" style="strokeWidth=1;shadow=0;dashed=0;align=center;html=1;shape=mxgraph.mockup.rrect;rSize=10;fillColor=#ffffff;strokeColor=#666666;fontSize=20;" vertex="1" parent="1">
                    <mxGeometry x="130" y="165" width="370" height="50" as="geometry"/>
                </mxCell>
                <mxCell id="27" value="Phòng ban" style="strokeColor=inherit;fillColor=inherit;gradientColor=inherit;strokeWidth=1;shadow=0;dashed=0;align=center;html=1;shape=mxgraph.mockup.rrect;rSize=0;fontSize=17;fontColor=#666666;fontStyle=1;resizeHeight=1;" vertex="1" parent="26">
                    <mxGeometry width="125" height="50" relative="1" as="geometry">
                        <mxPoint x="125" as="offset"/>
                    </mxGeometry>
                </mxCell>
                <mxCell id="28" value="Bảng lương" style="strokeColor=inherit;fillColor=inherit;gradientColor=inherit;strokeWidth=1;shadow=0;dashed=0;align=center;html=1;shape=mxgraph.mockup.rrect;rSize=0;fontSize=17;fontColor=#666666;fontStyle=1;resizeHeight=1;" vertex="1" parent="26">
                    <mxGeometry width="125" height="50" relative="1" as="geometry">
                        <mxPoint x="250" as="offset"/>
                    </mxGeometry>
                </mxCell>
                <mxCell id="29" value="Nhân viên" style="strokeWidth=1;shadow=0;dashed=0;align=center;html=1;shape=mxgraph.mockup.leftButton;rSize=10;fontSize=17;fontColor=#ffffff;fontStyle=1;fillColor=#008cff;strokeColor=#008cff;resizeHeight=1;" vertex="1" parent="26">
                    <mxGeometry width="125" height="50" relative="1" as="geometry"/>
                </mxCell>
                <mxCell id="30" value="Header" style="text;html=1;strokeColor=none;fillColor=none;align=center;verticalAlign=middle;whiteSpace=wrap;rounded=0;fontSize=40;" vertex="1" parent="1">
                    <mxGeometry x="660" y="175" width="60" height="30" as="geometry"/>
                </mxCell>
                <mxCell id="31" value="Chọn kiểu sắp xếp:" style="text;html=1;strokeColor=none;fillColor=none;align=center;verticalAlign=middle;whiteSpace=wrap;rounded=0;fontSize=20;" vertex="1" parent="1">
                    <mxGeometry x="100" y="320" width="190" height="50" as="geometry"/>
                </mxCell>
            </root>
        </mxGraphModel>
    </diagram>
</mxfile>